<svg xmlns="http://www.w3.org/2000/svg" xmlns:xlink="http://www.w3.org/1999/xlink" width="1000" zoomAndPan="magnify" viewBox="0 0 750 749.999995" height="1000" preserveAspectRatio="xMidYMid meet" version="1.0"><defs><clipPath id="id1"><path d="M 139 126.027344 L 584 126.027344 L 584 666 L 139 666 Z M 139 126.027344 " clip-rule="nonzero"/></clipPath><clipPath id="id2"><path d="M 128.515625 49 L 595 49 L 595 329 L 128.515625 329 Z M 128.515625 49 " clip-rule="nonzero"/></clipPath><clipPath id="id3"><path d="M 138 291.199219 L 593 291.199219 L 593 441 L 138 441 Z M 138 291.199219 " clip-rule="nonzero"/></clipPath><clipPath id="id4"><path d="M 137.070312 291.199219 L 594.570312 291.199219 L 594.570312 446 L 137.070312 446 Z M 137.070312 291.199219 " clip-rule="nonzero"/></clipPath></defs><g clip-path="url(#id1)"><path fill="rgb(100%, 100%, 100%)" d="M 361.746094 665.957031 C 484.429688 665.957031 583.894531 545.179688 583.894531 396.195312 C 583.894531 247.210938 551.238281 126.4375 361.746094 126.4375 C 172.253906 126.4375 139.589844 247.210938 139.589844 396.195312 C 139.589844 545.179688 239.054688 665.957031 361.746094 665.957031 Z M 361.746094 665.957031 " fill-opacity="1" fill-rule="nonzero"/></g><g clip-path="url(#id2)"><path fill="rgb(0%, 0%, 0%)" d="M 531.328125 57.636719 C 536.753906 55.882812 542.160156 53.34375 546.007812 49.011719 C 546.410156 52.414062 546.238281 55.9375 545.039062 59.175781 C 543.25 64.125 540.070312 68.410156 536.839844 72.507812 C 539.15625 71.996094 541.527344 71.691406 543.796875 70.976562 C 551.515625 68.707031 559.222656 66.40625 566.9375 64.144531 C 570.035156 69.609375 570.726562 76.015625 571.136719 82.171875 C 571.441406 88.972656 571.1875 95.789062 570.542969 102.5625 C 569.855469 109.65625 568.960938 116.765625 567.046875 123.644531 C 564.421875 133.542969 559.6875 142.742188 557.367188 152.730469 C 564.6875 158.585938 570.480469 166.152344 575.109375 174.253906 C 581.015625 184.636719 585.113281 195.960938 588.105469 207.496094 C 591.453125 220.539062 593.363281 233.929688 594.179688 247.359375 C 595.03125 261.371094 594.652344 275.457031 593.046875 289.402344 C 591.746094 300.5625 589.648438 311.644531 586.457031 322.417969 C 585.84375 324.285156 585.417969 326.230469 584.566406 328.011719 C 582.847656 321.917969 580.988281 315.855469 578.941406 309.859375 C 578.839844 309.574219 578.746094 309.292969 578.660156 309.015625 C 578.375 308.152344 578.082031 307.296875 577.777344 306.449219 C 577.210938 304.816406 576.710938 303.15625 576.035156 301.566406 C 575.421875 299.71875 574.773438 297.886719 574.003906 296.101562 C 573.757812 295.320312 573.476562 294.554688 573.132812 293.824219 C 572.878906 293.039062 572.601562 292.269531 572.277344 291.519531 C 572.085938 291.035156 571.894531 290.558594 571.699219 290.085938 C 569.882812 285.535156 568.015625 281 565.929688 276.570312 C 565.472656 275.269531 564.789062 274.074219 564.191406 272.84375 C 563.996094 272.449219 563.808594 272.058594 563.625 271.671875 C 562.617188 269.316406 561.476562 266.996094 560.175781 264.789062 C 559.972656 264.402344 559.777344 264.015625 559.585938 263.632812 C 558.929688 262.382812 558.386719 261.066406 557.582031 259.898438 C 557.140625 259.011719 556.699219 258.125 556.160156 257.304688 C 555.886719 256.8125 555.597656 256.332031 555.28125 255.878906 C 554.941406 255.183594 554.582031 254.496094 554.144531 253.859375 C 553.808594 253.261719 553.457031 252.679688 553.097656 252.101562 C 552.785156 251.585938 552.484375 251.066406 552.1875 250.546875 C 552.097656 250.457031 551.917969 250.28125 551.828125 250.1875 C 551.402344 249.1875 550.730469 248.335938 550.148438 247.433594 C 549.191406 245.984375 548.1875 244.5625 547.285156 243.082031 C 547.199219 242.984375 547.027344 242.792969 546.9375 242.695312 C 546.445312 241.832031 545.832031 241.054688 545.257812 240.25 C 544.171875 238.667969 542.976562 237.171875 541.796875 235.664062 C 541.160156 234.769531 540.402344 233.96875 539.796875 233.050781 C 539.277344 232.503906 538.722656 231.980469 538.347656 231.316406 C 537.398438 230.40625 536.726562 229.253906 535.742188 228.375 C 534.878906 227.582031 534.316406 226.527344 533.429688 225.757812 C 530.382812 222.863281 527.601562 219.671875 524.359375 216.996094 C 521.410156 214.390625 518.328125 211.910156 515.066406 209.699219 C 514.96875 209.617188 514.777344 209.453125 514.679688 209.367188 C 513.480469 208.648438 512.335938 207.851562 511.1875 207.066406 C 510.109375 206.390625 509.03125 205.726562 507.925781 205.105469 C 507.460938 204.800781 506.988281 204.519531 506.507812 204.25 C 506.097656 204.066406 505.691406 203.886719 505.285156 203.707031 C 505.1875 203.609375 504.988281 203.414062 504.890625 203.3125 C 502.914062 202.433594 501.054688 201.277344 499.023438 200.527344 C 498.171875 200.109375 497.324219 199.691406 496.441406 199.359375 C 495.960938 199.164062 495.484375 198.972656 495.003906 198.789062 C 482.726562 193.890625 469.410156 191.734375 456.214844 192.007812 C 437.632812 192.421875 419.359375 197.148438 402.144531 203.960938 C 399.164062 205.089844 396.242188 206.359375 393.304688 207.59375 L 393.277344 207.710938 C 392.398438 207.984375 391.574219 208.394531 390.734375 208.753906 L 390.671875 208.863281 C 389.121094 209.390625 387.679688 210.199219 386.226562 210.949219 L 385.789062 210.914062 L 385.78125 211.328125 C 385.640625 211.285156 385.351562 211.195312 385.210938 211.152344 L 385.230469 211.445312 C 383.003906 212.222656 380.996094 213.503906 378.871094 214.503906 L 378.871094 214.78125 C 378.726562 214.738281 378.441406 214.652344 378.300781 214.609375 L 378.296875 215.054688 C 378.15625 215.019531 377.875 214.945312 377.734375 214.910156 L 377.714844 215.328125 C 377.578125 215.300781 377.308594 215.242188 377.171875 215.210938 L 377.132812 215.484375 C 375.667969 216.125 374.285156 216.933594 372.867188 217.671875 L 372.804688 217.8125 C 372.273438 218 371.75 218.195312 371.21875 218.367188 C 371.828125 215.832031 372.75 213.382812 373.324219 210.835938 C 374.246094 207.0625 375.222656 203.21875 375.035156 199.304688 C 374.953125 197.078125 373.933594 194.753906 371.925781 193.625 C 370.371094 192.996094 368.644531 192.714844 366.984375 193.039062 C 362.941406 193.464844 359.058594 194.730469 355.195312 195.925781 C 342.714844 199.882812 330.160156 204.179688 317.019531 205.234375 C 315.476562 205.261719 313.957031 205.585938 312.414062 205.527344 C 310.492188 205.453125 308.59375 205.828125 306.671875 205.800781 C 304.550781 205.855469 302.417969 205.78125 300.308594 206.050781 C 296.953125 206.167969 293.582031 206.007812 290.238281 206.328125 C 283.988281 206.5 277.722656 206.273438 271.484375 206.660156 C 265.4375 206.640625 259.390625 206.707031 253.34375 206.773438 C 249.601562 207.117188 245.835938 206.851562 242.089844 207.058594 C 239.53125 207.398438 236.933594 207.101562 234.375 207.425781 C 222.488281 208.046875 210.457031 209.195312 199.09375 212.976562 C 195.5625 214.28125 192.070312 215.726562 188.835938 217.664062 C 187.753906 218.304688 186.730469 219.035156 185.671875 219.703125 C 184.527344 220.492188 183.429688 221.347656 182.355469 222.230469 C 176.144531 227.289062 171.539062 234.050781 168.082031 241.21875 C 163.964844 249.851562 161.34375 259.113281 159.316406 268.433594 C 155.308594 287.414062 153.628906 306.792969 152.386719 326.121094 C 152.167969 325.898438 151.996094 325.644531 151.878906 325.367188 C 148.828125 316.832031 145.785156 308.292969 142.65625 299.785156 C 142.550781 299.5 142.445312 299.21875 142.339844 298.9375 C 141.988281 297.871094 141.632812 296.800781 141.179688 295.773438 C 139.984375 292.238281 138.621094 288.769531 137.347656 285.265625 C 132.441406 270.71875 129.476562 255.492188 128.808594 240.15625 C 128.515625 235.75 128.679688 231.320312 128.710938 226.90625 C 128.972656 225.003906 128.882812 223.078125 129.109375 221.179688 C 130.007812 209.183594 132.5 197.300781 136.574219 185.972656 C 136.894531 185.222656 137.175781 184.457031 137.4375 183.6875 C 137.640625 183.210938 137.835938 182.730469 138.03125 182.25 C 138.222656 181.769531 138.414062 181.292969 138.597656 180.816406 C 138.902344 180.148438 139.195312 179.480469 139.464844 178.804688 C 139.988281 177.667969 140.53125 176.542969 141.039062 175.402344 C 146.019531 165.140625 152.5 155.578125 160.421875 147.351562 C 167.582031 139.84375 175.878906 133.445312 184.867188 128.28125 C 187.539062 126.71875 190.324219 125.371094 193.164062 124.15625 C 197.082031 122.460938 201.292969 120.957031 204.285156 117.773438 C 206.082031 116.019531 207.320312 113.820312 208.546875 111.65625 C 214.582031 103.210938 222.210938 95.964844 230.710938 90.035156 C 239.984375 83.558594 250.257812 78.613281 260.878906 74.777344 C 272.722656 70.519531 285.019531 67.601562 297.417969 65.488281 C 320.929688 61.539062 344.816406 60.414062 368.625 60.230469 C 401.777344 60.042969 434.882812 62.035156 468.015625 62.734375 C 482.058594 62.921875 496.132812 62.984375 510.121094 61.636719 C 517.28125 60.894531 524.453125 59.816406 531.328125 57.636719 Z M 531.328125 57.636719 " fill-opacity="1" fill-rule="nonzero"/></g><g clip-path="url(#id3)"><path fill="rgb(0%, 0%, 0%)" d="M 500.476562 291.65625 C 463.59375 291.890625 428.046875 302.804688 391.84375 307.171875 C 376.734375 308.992188 361.160156 309.4375 346.023438 307.746094 C 325.902344 305.492188 306.417969 299.507812 286.308594 296.828125 C 268.335938 294.429688 250.136719 291.929688 232.050781 291.828125 C 200.445312 291.652344 169.878906 301.019531 138.894531 306.078125 C 138.894531 314.660156 137.054688 325.671875 141.6875 331.703125 C 146.464844 337.925781 154.523438 343.613281 156.617188 352.042969 C 161.574219 372.035156 168.613281 391.632812 177.613281 410.417969 C 181.988281 419.550781 190.246094 425.914062 199.460938 430.300781 C 221.660156 440.859375 247.933594 442.410156 272.289062 439.089844 C 306.96875 434.363281 325.785156 409.726562 340.140625 381.574219 C 345.511719 370.132812 346.113281 356.929688 353.1875 346.46875 C 357.390625 340.257812 367.148438 342.875 374.125 342.851562 C 381.101562 342.828125 387.011719 353.8125 389.175781 361.121094 C 396.835938 386.996094 409.609375 414.445312 434.996094 428 C 472.90625 448.246094 532.625 444.457031 557.226562 407.949219 C 566.851562 393.660156 569.511719 376.324219 574.339844 360.144531 C 577.28125 350.296875 579.90625 338.554688 590.363281 333.140625 C 594.582031 330.957031 591.621094 322.234375 592.242188 317.167969 C 592.921875 311.644531 594.230469 306.761719 585.929688 305.675781 C 571.457031 303.785156 557.414062 298.027344 542.601562 296.082031 C 528.5625 294.234375 514.804688 291.566406 500.480469 291.65625 Z M 256.628906 300.851562 C 267.101562 300.789062 277.527344 301.511719 287.703125 303.550781 C 348.335938 315.691406 349.5625 339.34375 324.601562 388.238281 C 304.261719 428.082031 262.125 438.066406 219.667969 428.515625 C 200.097656 424.113281 186.714844 411.179688 180.402344 393.46875 C 173.738281 374.773438 168.699219 354.914062 169.839844 335.265625 C 171.367188 308.953125 202.804688 305.257812 225.3125 302.859375 C 235.640625 301.761719 246.15625 300.910156 256.625 300.847656 Z M 478.019531 300.851562 C 488.492188 300.914062 499.007812 301.761719 509.335938 302.859375 C 531.84375 305.257812 563.277344 308.957031 564.804688 335.265625 C 565.945312 354.914062 560.90625 374.777344 554.246094 393.46875 C 547.933594 411.183594 534.550781 424.117188 514.980469 428.519531 C 472.523438 438.070312 430.390625 428.085938 410.046875 388.242188 C 385.082031 339.34375 386.308594 315.691406 446.945312 303.550781 C 457.121094 301.515625 467.546875 300.789062 478.015625 300.851562 Z M 478.019531 300.851562 " fill-opacity="1" fill-rule="nonzero"/></g><g clip-path="url(#id4)"><path stroke-linecap="butt" transform="matrix(0.77385, 0, 0, 0.775613, 134.748922, 274.084636)" fill="none" stroke-linejoin="miter" d="M 472.608076 22.655128 C 424.946612 22.957308 379.011499 37.028837 332.228354 42.659464 C 312.703407 45.006397 292.577771 45.58054 273.01749 43.399805 C 247.016197 40.493838 221.837698 32.778168 195.851549 29.32324 C 172.626554 26.230928 149.108786 23.007671 125.737405 22.876727 C 84.895537 22.650091 45.396389 34.727231 5.357124 41.249289 C 5.357124 52.314124 2.979603 66.511562 8.966311 74.287669 C 15.139788 82.310556 25.55343 89.643464 28.259058 100.511882 C 34.664735 126.287862 43.760897 151.555172 55.391061 175.774923 C 61.044614 187.549882 71.715694 195.754077 83.623488 201.409885 C 112.310218 215.023108 146.261819 217.022534 177.734942 212.741646 C 222.54944 206.647677 246.864762 174.883491 265.415481 138.5866 C 272.356226 123.835165 273.133589 106.812342 282.275181 93.325028 C 287.70663 85.31725 300.316071 88.691596 309.331467 88.661378 C 318.346864 88.63116 325.984207 102.793344 328.780697 112.216333 C 338.679461 145.577038 355.185815 180.967388 387.991561 198.443482 C 436.980601 224.546824 514.15159 219.661575 545.942726 172.591957 C 558.380541 154.169031 561.818103 131.817762 568.057202 110.957248 C 571.858206 98.260639 575.250337 83.121406 588.763337 76.141041 C 594.214976 73.325728 590.388733 62.079584 591.191336 55.547454 C 592.069655 48.426071 593.760673 42.130648 583.034067 40.730546 C 564.331914 38.292958 546.185021 30.869396 527.043708 28.361299 C 508.901863 25.979111 491.12346 22.539292 472.613124 22.655128 Z M 157.498254 34.510668 C 171.031445 34.430087 184.504062 35.361809 197.653618 37.990778 C 276.005796 53.643718 277.59081 84.138746 245.335275 147.178594 C 219.051304 198.549245 164.600529 211.422126 109.735833 199.108278 C 84.446282 193.432325 67.152469 176.757009 58.995201 153.922251 C 50.383629 129.818335 43.871949 104.213591 45.34591 78.880809 C 47.319606 44.956034 87.944417 40.191658 117.029925 37.099346 C 130.376346 35.684135 143.965063 34.586213 157.493206 34.505632 Z M 443.588191 34.510668 C 457.121381 34.59125 470.710098 35.684135 484.05652 37.099346 C 513.142027 40.191658 553.761791 44.96107 555.735486 78.880809 C 557.209448 104.213591 550.697767 129.823372 542.091244 153.922251 C 533.933975 176.762045 516.640163 193.437361 491.350612 199.113315 C 436.485916 211.427162 382.040188 198.554281 355.75117 147.18363 C 323.490587 84.138746 325.075601 53.643718 403.432826 37.990778 C 416.582383 35.366846 430.055 34.430087 443.583143 34.510668 Z M 443.588191 34.510668 " stroke="rgb(0%, 0%, 0%)" stroke-width="1" stroke-opacity="1" stroke-miterlimit="4"/></g></svg>